<svg viewBox="0 0 70 28" xmlns="http://www.w3.org/2000/svg">
    <path d="m0.31006 22v-21.45h4.86v17.64h8.73v3.81h-13.59z" fill="currentColor"/>
    <path d="m20.884 17.77c0.68 0.84 1.63 1.26 2.85 1.26s2.16-0.42 2.82-1.26c0.68-0.84 1.02-2.01 1.02-3.51v-0.21c0-1.5-0.34-2.67-1.02-3.51-0.66-0.86001-1.6-1.29-2.82-1.29-1.2 0-2.14 0.42-2.82 1.26-0.68 0.82-1.02 1.98-1.02 3.48v0.24c0 1.5 0.33 2.68 0.99 3.54zm2.82 4.56c-2.38 0-4.35-0.73-5.91-2.19-1.56-1.48-2.34-3.42-2.34-5.82v-0.24c0-2.42 0.78-4.38 2.34-5.88s3.54-2.25 5.94-2.25 4.37 0.74 5.91 2.22c1.56 1.46 2.34 3.4 2.34 5.82v0.24c0 2.44-0.78 4.4-2.34 5.88s-3.54 2.22-5.94 2.22z" fill="currentColor"/>
    <path d="m41.86 27.79c-4.72 0-7.32-1.82-7.8-5.46h4.32c0.3 1.52 1.46 2.28 3.48 2.28 2.64 0 3.96-1.28 3.96-3.84v-2.37c-0.46 0.82-1.14 1.51-2.04 2.07s-1.9 0.84-3 0.84c-1.96 0-3.59-0.68-4.89-2.04s-1.95-3.18-1.95-5.46v-0.21c0-2.22 0.66-4.05 1.98-5.49s2.96-2.16 4.92-2.16c2.3 0 3.96 0.9 4.98 2.7v-2.34h4.32v14.46c-0.02 2.3-0.75 4.04-2.19 5.22-1.44 1.2-3.47 1.8-6.09 1.8zm0.21-9.75c1.16 0 2.09-0.38 2.79-1.14 0.72-0.78 1.08-1.83 1.08-3.15v-0.21c0-1.34-0.34-2.39-1.02-3.15-0.66-0.76001-1.58-1.14-2.76-1.14-1.2 0-2.13 0.39-2.79 1.17-0.66 0.78-0.99 1.83-0.99 3.15v0.24c0 1.28 0.34 2.31 1.02 3.09 0.68 0.76 1.57 1.14 2.67 1.14z" fill="currentColor"/>
    <path d="m58.443 17.77c0.68 0.84 1.63 1.26 2.85 1.26s2.16-0.42 2.82-1.26c0.68-0.84 1.02-2.01 1.02-3.51v-0.21c0-1.5-0.34-2.67-1.02-3.51-0.66-0.86001-1.6-1.29-2.82-1.29-1.2 0-2.14 0.42-2.82 1.26-0.68 0.82-1.02 1.98-1.02 3.48v0.24c0 1.5 0.33 2.68 0.99 3.54zm2.82 4.56c-2.38 0-4.35-0.73-5.91-2.19-1.56-1.48-2.34-3.42-2.34-5.82v-0.24c0-2.42 0.78-4.38 2.34-5.88s3.54-2.25 5.94-2.25 4.37 0.74 5.91 2.22c1.56 1.46 2.34 3.4 2.34 5.82v0.24c0 2.44-0.78 4.4-2.34 5.88s-3.54 2.22-5.94 2.22z" fill="currentColor"/>
</svg>