<svg fill="none" viewBox="0 0 33 33" xmlns="http://www.w3.org/2000/svg">
<rect x=".5" y=".5" width="32" height="32" rx="16" stroke="#fff"/>
<path d="m24.227 22.094-3.8805-3.8804c0.6867-0.9093 1.094-2.0415 1.094-3.2688 0-2.9983-2.4307-5.429-5.4291-5.429s-5.4291 2.4307-5.4291 5.429c0 2.9984 2.4307 5.4291 5.4291 5.4291 1.2273 0 2.3594-0.4073 3.2687-1.094l3.8805 3.8805 1.0664-1.0664zm-4.2949-7.1489c0 2.1655-1.7555 3.9209-3.921 3.9209s-3.921-1.7554-3.921-3.9209 1.7555-3.921 3.921-3.921 3.921 1.7555 3.921 3.921z" clip-rule="evenodd" fill="#fff" fill-rule="evenodd"/>
</svg>
