<svg width="846" height="921" fill="none" xmlns="http://www.w3.org/2000/svg"><path d="M374.833 878.761l-28.306 257.389a199.869 199.869 0 0026.48 8.85l29.22-263.434h7.761l12.784-114.565 12.783 114.781h8.447l28.991 262.138a213.756 213.756 0 0025.111-7.77l-28.307-257.173h8.903l-12.327-110.034 36.296 105.287 9.131-2.804 71.451 208.204c5.479-4.75 12.099-10.79 19.632-18.13L534.4 864.09l9.588-2.805-34.699-100.972 56.157 91.91 9.359-5.178 89.029 145.633c4.794-6.041 9.816-12.513 14.838-19.417l-83.778-137.219 10.044-5.394-53.646-88.027L623.2 818.35l8.903-7.551 91.311 96.441c3.881-6.041 7.762-12.298 11.414-18.77l-86.061-92.342 9.36-8.199-68.484-72.061 83.094 57.174 7.761-10.14 89.942 61.921 8.903-17.908-86.518-59.116 8.218-10.572-79.212-54.154 89.485 37.757 5.935-13.161 89.942 37.757 6.62-17.045-88.801-37.325 6.164-13.161-84.92-35.599 91.312 18.123 2.511-14.239 94.507 18.986 3.653-16.397-94.508-18.987 3.424-15.102-86.061-17.908h88.116v-15.103H846v-15.534h-96.79v-16.613H614.754v-4.746l130.119-26.106 3.88 16.828 93.823-18.77a356.282 356.282 0 00-11.642-51.781l-93.823 18.771 3.653 16.397h-1.598l-128.749 25.89c-1.598-6.041-3.653-11.866-5.936-17.907l121.673-51.134 6.848 14.672 87.203-36.678-1.142-2.805c-5.935-15.75-12.099-30.853-18.262-45.524l-91.312 37.972 6.621 14.24h-1.37l-120.303 50.702c-2.739-5.178-5.935-10.14-9.131-15.103l109.117-73.356 9.131 11.651 82.18-57.606c-7.533-16.181-15.294-31.716-22.827-46.603l-91.312 63.432 8.903 11.435-107.976 74.003c-3.652-4.099-7.305-7.983-11.185-11.651l89.257-93.852 10.272 8.846 83.322-87.596c-8.903-15.75-18.034-30.637-27.165-44.661l-94.964 99.678 10.272 8.63-89.485 93.853c-3.881-3.021-8.218-6.042-12.555-8.846l66.886-109.171 10.957 5.825 80.354-131.609c-11.186-15.534-22.828-29.558-32.416-43.151l-91.311 151.027 10.957 5.826-66.885 109.602a147.46 147.46 0 00-13.469-5.825l40.862-120.39 10.957 3.452L612.928 96.01c-17.806-17.044-32.644-29.99-39.264-36.462l-73.278 213.595 10.958 3.452-41.09 119.743c-2.283 0-4.566 0-6.849-1.726-2.282-1.726-4.337 0-6.392 0l13.925-125.784h10.045l27.85-252.647A206.285 206.285 0 00463.177.216l-29.22 264.081h10.273l-13.925 125.784h-12.784l-13.925-125.784h8.903L382.823 0a205.268 205.268 0 00-45.656 15.534l28.307 253.294h9.359l13.925 125.784c-3.88 0-7.533 1.51-11.185 2.373l-41.547-121.037 7.305-2.805-73.278-212.732c-7.761 6.472-20.316 17.476-36.068 33.226l66.429 192.667 7.762-2.373 41.318 120.39-9.587 4.099-66.886-109.602 5.479-3.021-91.312-149.517c-8.903 11.004-18.49 23.302-28.078 36.463l81.496 133.551 6.163-3.453 66.886 111.329c-2.511 1.726-5.251 3.452-7.762 5.394l-90.855-95.147 3.881-3.237-94.507-99.246a6083.796 6083.796 0 00-22.828 36.678l85.148 89.322 5.478-3.668 91.312 94.068-5.935 5.826-108.204-74.435 2.282-2.805-91.311-63.215c-5.935 11.434-11.87 23.301-17.577 35.814l83.778 58.685 2.739-3.668 108.204 74.435a55.975 55.975 0 00-3.881 6.041l-122.129-51.349v-2.373l-91.311-38.404c-4.794 11.003-9.36 21.575-13.697 33.873v1.294l89.029 37.541 1.37-3.236 122.357 51.565-2.283 5.825-130.804-26.321v-1.726l-95.192-18.987c-3.196 11.435-5.935 23.302-7.99 35.384l95.193 18.986v-1.942l132.858 26.322v5.394H0v34.736h230.105v4.315l-129.206 24.812-95.42 19.417c2.054 11.22 4.565 21.576 7.533 32.795l95.192-19.202 129.662-25.459 1.142 3.236-121.673 51.565v1.511l-89.257 37.541 12.327 30.205 91.312-38.188 122.813-50.487 1.37 2.158-109.345 74.219 1.826 2.373-86.29 59.332 15.98 28.48 91.312-62.784v1.941l108.204-74.219-87.659 95.795 3.196 2.589-86.746 90.616 17.349 26.537 92.681-98.167 2.968 2.373 89.256-93.636-66.885 109.386 4.565 2.373-83.321 136.356c6.62 8.846 13.012 17.26 19.403 25.028l89.942-147.144 4.566 2.373 65.744-107.876-40.634 118.448 5.936 1.726-68.484 196.768c9.131 8.84 16.893 15.75 22.828 21.57l72.136-209.492 6.163 1.942 39.036-113.918-13.24 119.096 8.446.863z" fill="#104751"/></svg>